<svg width="120" height="160" viewBox="0 0 120 160" fill="none" xmlns="http://www.w3.org/2000/svg">
<path d="M38.3502 5.68836C44.0675 1.71975 51.0217 -0.274865 58.0763 0.030504C68.3219 0.526748 77.2631 5.00436 84.1089 12.2545C92.1212 20.7403 95.4202 32.2157 96.2045 43.413C96.6119 49.2311 96.5693 54.9989 97.5241 60.7809C97.8915 62.9762 98.3463 65.1572 98.8873 67.3194C100.007 71.7378 101.501 76.2506 101.238 80.8452C101.138 82.5954 100.687 84.169 99.933 85.7636C104.84 87.5441 108.237 89.8322 110.451 94.5314C112.138 98.1139 113.061 102.14 114.001 105.954C116.142 114.622 117.743 123.404 118.795 132.254C119.261 136.28 119.737 140.403 119.486 144.455C119.391 146.033 119.05 147.587 118.475 149.069C118.175 149.83 117.612 151.327 116.603 152.209C116.162 152.778 115.195 153.745 114.801 154.027C113.57 155.694 109.741 156.777 107.682 157.116C103.867 157.744 99.9754 157.978 96.1143 158.187C90.1615 158.525 84.1986 158.675 78.2354 158.638C77.044 158.638 73.1626 158.906 72.3386 158.313C71.9851 158.058 71.8856 157.681 71.8458 157.279C71.819 157.008 71.8063 156.734 71.7953 156.461C69.1219 156.907 66.3372 156.286 63.661 156.513C62.0491 156.651 60.5516 157.493 58.9224 157.741C54.5612 158.405 50.2839 157.311 46.3608 155.526L46.2266 155.465C45.279 155.034 44.2166 154.551 43.3947 153.941C43.2784 153.855 43.1991 153.769 43.1042 153.662C42.5539 153.573 41.759 152.974 41.4183 152.55C39.8718 155.494 36.4089 158.285 33.1747 159.32C29.5293 160.486 25.048 160.121 21.6231 158.466C19.8382 157.604 17.0498 155.195 15.5994 153.745C14.6325 152.778 13.2645 150.159 12.7814 149.306C8.18127 141.183 4.83775 130.001 2.97231 120.942C1.34306 113.029 -0.931557 100.701 3.97015 93.6801C6.35364 90.2663 9.9716 88.3934 13.8253 86.8337C11.5222 83.3146 11.4435 79.9548 12.3896 76.0284C12.9142 73.8512 13.6083 71.7132 14.1482 69.5397C14.8976 66.4746 15.3927 63.3575 15.6288 60.2176C15.8998 56.6343 15.7646 53.0608 15.7569 49.473C15.7327 38.227 16.2377 26.8558 22.2827 16.8555C24.3681 13.4055 27.1895 10.0114 30.766 7.88512C33.1386 6.4744 35.5833 5.88072 38.3502 5.68836Z" fill="#141A1F"/>
<path d="M81.1365 81.8552L80.9971 81.8677C80.9926 82.8958 89.4502 93.3934 89.4039 94.7447C89.3923 95.0798 89.2306 95.3744 89.0198 95.6342C88.0311 96.8521 85.2293 98.9546 83.8869 100.09C84.9477 100.863 88.5326 103.048 89.0669 103.905C89.2267 104.162 89.0766 104.646 88.9902 104.916C88.6594 105.952 88.0947 106.973 87.6359 107.964C87.0822 109.16 86.5747 110.377 86.0366 111.58C82.0189 120.565 77.7178 129.459 71.8017 137.471C71.246 138.225 70.2897 139.774 69.4421 140.2C69.5277 140.231 69.5342 140.236 69.6374 140.256C70.3973 140.411 74.8657 139.411 75.9537 139.218C79.1328 138.656 82.3191 138.133 85.5119 137.646C87.43 137.36 89.3853 137.152 91.2877 136.795C91.4934 136.756 91.6181 136.697 91.7934 136.592C92.1157 132.862 92.9199 129.089 93.5554 125.393C94.6638 118.846 95.8487 112.313 97.1095 105.792C97.4032 104.289 97.9822 100.169 98.5635 99.0112C98.7385 98.6625 98.9315 98.5982 99.2843 98.4819C99.6092 98.5169 99.7695 98.5928 100.023 98.7892C100.102 98.9329 100.172 99.0833 100.188 99.2475C100.239 99.787 98.1805 109.543 97.9463 110.815C96.8312 116.863 95.7546 122.918 94.7161 128.979C94.365 131.026 94.0954 134.478 93.5466 136.291C93.6105 136.32 93.7116 136.374 93.7866 136.391C94.4742 136.561 96.9088 136.27 97.482 135.921C98.6093 136.501 103.27 135.239 104.498 136.095C104.765 136.28 104.78 136.437 104.846 136.725C104.75 137.019 104.713 137.149 104.419 137.318C103.557 137.814 100.841 137.588 99.7388 137.668C96.1984 137.907 92.6706 138.294 89.1654 138.827C85.5723 139.338 81.9889 139.908 78.4163 140.537C76.1581 140.933 73.9001 141.421 71.6287 141.737C71.3755 141.771 71.1709 141.775 70.9191 141.729C71.2765 142.87 71.767 143.961 72.0888 145.122C73.0639 148.639 73.6442 153.084 73.5919 156.739C73.7039 156.808 73.8233 156.869 73.9527 156.898C75.0759 157.167 77.4321 157.012 78.6598 157.014C84.5937 157.021 90.5264 156.851 96.4492 156.502C99.8279 156.298 103.277 156.09 106.619 155.568C108.319 155.302 110 154.9 111.543 154.15C114.159 152.878 115.987 150.705 116.893 148.047C117.564 146.076 117.751 144.004 117.758 141.94C117.771 137.946 117.252 133.854 116.719 129.895C115.723 122.419 114.329 114.998 112.542 107.659C111.505 103.294 110.52 98.4147 108.376 94.4135C107.382 92.5599 106.097 91.0013 104.297 89.799C100.875 87.5132 96.3781 86.5488 92.4436 85.3357L81.1365 81.8552Z" fill="#778EEE"/>
<path d="M44.0423 16.7354C43.6685 17.4877 43.5965 18.7334 43.4214 19.5792C43.2179 20.5955 42.9468 21.5986 42.6098 22.582C39.9316 30.1456 34.9311 36.5757 28.3822 41.4796C28.2817 43.2606 28.2941 45.046 28.4192 46.8256C29.0737 55.5896 32.5444 65.1308 39.6574 71.0105C44.2702 74.8236 50.4524 76.9325 56.5562 76.4898C63.0491 76.0189 69.6841 72.7941 73.9279 68.0768C76.4948 65.1421 78.3017 61.6687 79.2015 57.9391C79.446 56.9146 79.2839 55.2955 79.9012 54.4429C80.123 54.2955 80.3615 54.1753 80.6426 54.221C81.5444 54.3677 81.1933 55.3835 81.6664 55.8592C81.8263 56.02 82.014 56.0516 82.2396 56.0467C83.426 56.0204 85.2169 54.7262 86.0228 53.9468C88.2527 51.7901 88.9513 48.519 88.9292 45.5735C88.9138 43.5418 88.4931 41.0885 86.9025 39.6211C86.1636 38.9394 85.0033 38.5819 83.9798 38.6352C83.6536 38.6522 83.2852 38.7093 83.0756 38.9803C82.4004 39.8534 82.2753 45.3402 81.2085 46.2587C80.9835 46.4526 80.8385 46.4316 80.5673 46.4047C80.1794 46.1806 80.024 46.0379 79.8894 45.6173C79.4733 44.3166 79.4038 42.7573 79.1388 41.4071C78.6506 38.919 77.67 36.6874 76.5547 34.4054C65.4145 31.461 50.7316 26.0829 44.0423 16.7354Z" fill="#FFD6B6"/>
<path d="M63.374 57.8679C63.1599 57.9157 62.938 57.9889 62.7735 58.135C62.2806 58.5733 61.9196 59.2675 61.4895 59.7784C60.1418 61.3799 58.0733 62.4394 55.9771 62.812C54.3771 63.0964 52.1521 63.1286 50.5828 62.6537C49.3278 62.2737 47.349 60.4954 46.1367 60.6931C45.9245 60.8658 45.8725 60.8911 45.8307 61.1537C45.7633 61.5783 46.0726 61.9006 46.3246 62.2131C48.3994 63.9671 50.8851 64.6463 53.6161 64.6418C56.9604 64.6363 60.1649 63.5129 62.536 61.2102C63.2428 60.5238 63.9481 59.7219 63.9075 58.6987C63.8926 58.3207 63.6377 58.1138 63.374 57.8679Z" fill="#17120D"/>
<path d="M62.9652 31.8382C61.2761 31.7036 58.7288 32.0588 57.3791 33.1284C57.1313 33.3247 56.9016 33.5523 56.887 33.8766C56.8774 34.089 56.9793 34.3187 57.1327 34.4743C57.8502 35.2023 59.8205 34.0102 60.7297 33.868C61.6514 33.7239 62.5704 33.7767 63.4993 33.8088C64.1038 33.9161 64.7233 34.0196 65.3056 34.2103C66.0612 34.4578 67.8975 35.5767 68.5931 35.3722C68.7534 35.2065 68.8729 35.1248 68.9112 34.8879C68.9717 34.5137 68.7067 34.0722 68.4675 33.7927C67.2627 32.3852 64.769 31.9831 62.9652 31.8382Z" fill="#17120D"/>
<path d="M62.329 41.0343C62.0256 40.994 61.7031 40.9689 61.4004 41.0265C60.8687 41.1275 60.4257 41.5082 60.1597 41.9463C59.6094 42.8521 59.6763 44.1675 59.9735 45.1398C60.262 46.0837 60.69 46.7301 61.6035 47.2C61.8324 47.2406 62.0968 47.2491 62.3273 47.2179C62.8266 47.1504 63.3045 46.8483 63.5885 46.4541C64.1565 45.666 64.1665 44.4708 63.9863 43.5661C63.7673 42.4665 63.3019 41.6596 62.329 41.0343Z" fill="#17120D"/>
<path d="M42.945 43.5921C42.5973 43.5609 42.1986 43.5403 41.8649 43.6514C41.3648 43.8177 40.9736 44.2163 40.7427 44.6627C40.2485 45.6181 40.3594 46.9663 40.7069 47.9475C41.0191 48.8289 41.4673 49.3997 42.3462 49.8175C42.5559 49.8186 42.7809 49.8258 42.9883 49.7945C43.5217 49.714 43.9735 49.4 44.2714 48.9756C44.8561 48.1431 44.8311 46.955 44.6106 46.0147C44.365 44.9681 43.8911 44.1749 42.945 43.5921Z" fill="#17120D"/>
<path d="M43.0542 34.5096C40.903 34.38 38.5747 34.9806 36.7842 36.1187C35.7624 36.7683 34.4881 37.8095 34.2793 39.0433C34.2146 39.4251 34.2627 39.5855 34.4806 39.8855C34.7555 39.9835 34.9299 39.988 35.2177 39.9184C35.6474 39.8145 35.7924 39.5647 36.0117 39.2242L36.0868 39.1064C36.2268 38.9197 36.3732 38.7397 36.5373 38.5719C38.1904 36.8821 40.564 36.1371 42.9531 36.2031C43.5862 36.2206 44.2179 36.4066 44.8499 36.3663C45.2164 36.343 45.3733 36.1637 45.6043 35.9107L45.549 35.6005L45.6658 35.8054C45.6777 35.7767 45.6942 35.7496 45.7013 35.7196C45.753 35.504 45.6999 35.3305 45.5602 35.1633C45.0496 34.5527 43.8049 34.5582 43.0542 34.5096Z" fill="#17120D"/>
<path d="M51.2885 47.6426C51.2106 47.665 51.1321 47.6859 51.0555 47.712C50.7134 47.8287 50.5624 47.9769 50.4073 48.2898C49.8478 49.4186 48.4276 52.9142 48.8625 54.0349C49.3869 55.3864 51.2503 56.4376 52.5316 57.0257C52.8591 57.0599 53.3144 57.0604 53.601 56.8864C53.7992 56.766 53.7911 56.6935 53.835 56.4898C53.6242 55.4632 51.7604 54.6017 51.0569 53.7672L51.0081 53.7086C50.0867 52.6175 51.9626 49.9694 51.8679 48.5602C51.8365 48.0914 51.6348 47.9364 51.2885 47.6426Z" fill="#17120D"/>
<path d="M31.5298 82.6184C29.2384 83.2189 26.9535 84.2473 24.7034 85.0121C20.1766 86.5508 14.5466 87.9921 10.4325 90.2872C6.87387 92.2726 4.5398 95.2094 3.49488 99.0271C0.345551 110.535 8.61185 139.088 14.852 149.25C17.211 153.091 20.45 156.731 25.1435 157.864C28.3386 158.635 31.9483 158.34 34.7885 156.686C42.0039 152.486 46.0394 139.531 48.5519 132.102C49.9092 128.089 51.2709 124.07 52.3438 119.975C49.2815 118.876 46.2309 117.749 43.1923 116.591C40.2561 115.358 37.2037 114.294 34.2249 113.152C33.0095 115.724 22.8451 134.934 22.2536 135.328C22.0692 135.451 21.8883 135.499 21.6674 135.445C21.4345 135.389 21.1927 135.18 21.0915 134.974C20.964 134.713 20.9996 134.472 21.0904 134.207C21.3563 133.427 21.8669 132.656 22.2603 131.927C23.3543 129.903 25.4877 126.406 26.2044 124.429L26.241 124.327C26.0598 124.107 20.936 110.093 20.4264 108.783C19.6106 106.645 18.765 104.518 17.8901 102.401C17.2446 100.877 16.4567 99.3335 15.9413 97.769C15.8376 97.4541 15.7236 97.0325 15.7914 96.7046C15.8527 96.4087 15.9443 96.3409 16.2012 96.1892C16.3739 96.1812 16.5618 96.1706 16.7284 96.2219C17.1108 96.3397 17.3623 96.7231 17.5453 97.0439C17.9435 97.7423 18.1882 98.5426 18.5018 99.2801C19.1599 100.828 19.8179 102.363 20.4368 103.927C22.2448 108.477 24.0014 113.046 25.7059 117.632C26.247 119.103 26.661 120.703 27.3288 122.121C27.3424 122.149 27.3567 122.178 27.3706 122.207C28.1471 121.672 31.108 115.547 31.7118 114.322C30.9429 112.609 27.3412 105.143 27.4234 103.664C28.051 102.684 31.3914 101.037 32.6093 100.308C31.6047 99.406 27.9213 96.5301 27.5633 95.5882C27.437 95.2565 27.4799 94.9278 27.5836 94.5969C27.8725 93.6728 29.8967 90.4408 30.5013 89.3273C30.1537 86.8384 30.6641 84.9255 31.5298 82.6184Z" fill="#778EEE"/>
<path d="M71.6953 93.8267C67.2139 96.6236 61.2843 97.9096 55.9835 97.2539C56.6865 99.983 56.7364 102.72 55.8263 105.413C55.4466 106.537 54.9395 107.66 54.6972 108.818C54.0072 112.118 53.6738 114.92 52.6871 118.259C52.905 118.317 53.121 118.381 53.3351 118.452C53.7145 118.58 54.0775 118.775 54.2293 119.154C54.6639 120.233 49.1913 136.258 48.1846 138.507C48.2382 138.57 48.2713 138.615 48.3311 138.668C48.5758 138.885 48.8786 138.957 49.201 138.94C49.4146 139.184 49.6869 139.285 49.9814 139.417C52.4809 140.537 59.4675 142.985 62.2043 142.035C62.7225 141.339 63.607 137.789 63.9351 136.702C68.1582 122.732 71.0391 108.368 71.6953 93.8267Z" fill="#FEFEFE"/>
<path d="M41.9981 75.1979C41.1756 75.1537 40.4175 75.1928 39.6431 75.4865C38.9885 75.7346 38.4206 76.1309 37.9369 76.6175C36.2612 78.3038 33.5991 82.7793 32.6437 84.9848C32.1335 86.1624 31.9254 87.2284 32.1297 88.4975C32.8608 93.0402 38.6575 98.9526 40.663 103.64C39.7556 106.693 38.2617 109.46 36.6857 112.234C41.4638 114.082 46.2566 115.896 51.0639 117.675C51.5639 115.91 51.9926 114.127 52.349 112.331C52.6632 110.693 52.883 109.024 53.2471 107.397C53.6886 105.425 54.5449 103.773 54.6292 101.699C54.7362 99.0707 53.9556 95.982 52.4139 93.7947C51.9971 93.2034 51.4589 92.6796 50.9539 92.1568C50.5523 91.7872 49.666 91.1092 49.5647 90.5629C49.5134 90.2863 49.6384 90.1813 49.8007 89.9814C50.1848 89.8052 50.561 89.8962 50.968 89.9483C51.6124 89.51 51.2694 88.0569 51.7633 87.4033C51.9603 87.3099 52.0312 87.2387 52.2545 87.3017C52.5833 87.3944 52.8368 87.7898 52.9659 88.0705C53.4223 89.0636 52.7874 90.3767 52.4193 91.3047C52.9367 91.7933 53.4017 92.335 53.877 92.8608C54.6663 92.512 55.2394 92.0716 55.7181 91.3706C56.4296 90.329 56.6417 88.9955 56.3628 87.7876C55.9693 86.0839 54.572 84.3965 53.0478 83.4749C48.0431 80.4491 44.2219 87.3342 42.0028 87.7195C41.8081 87.7533 41.7926 87.7122 41.6292 87.608C41.6035 87.5123 41.5804 87.4264 41.5793 87.3271C41.5713 86.614 42.0907 85.8815 42.6013 85.4099C45.3324 82.8879 47.5281 81.1331 51.5266 81.2029C50.5432 79.9634 49.3051 79.0025 47.6599 78.7597C44.3528 78.2716 41.3001 81.5452 39.2847 83.6491C38.837 84.1166 38.2322 84.9256 37.692 85.2519C37.4912 85.3732 37.4173 85.3373 37.2002 85.2955C36.9635 85.087 36.7755 84.8967 36.7143 84.5835C36.6075 84.0352 36.9042 83.5103 37.2214 83.0753C39.0226 80.6043 42.647 77.9259 45.7679 77.4086C44.7183 76.1843 43.5989 75.5725 41.9981 75.1979Z" fill="#FFD6B6"/>
<path d="M73.1524 77.8538C72.909 78.3571 73.3075 79.9701 73.3397 80.6264C73.4862 83.7084 73.5587 86.7933 73.5574 89.8784C73.5107 104.254 70.8143 118.288 67.0752 132.171C66.4302 134.567 65.3695 139.14 64.3049 141.29C64.417 141.335 64.4173 141.339 64.5535 141.369C65.0103 141.465 65.6438 141.305 66.034 141.086C66.0858 141.071 66.1552 141.055 66.2056 141.029C67.7894 140.274 72.7081 133.565 73.4811 131.821C74.1074 131.319 74.821 129.827 75.2607 129.084C79.9134 121.23 83.6196 112.951 87.1986 104.609C85.6876 103.578 84.0925 102.537 82.6819 101.386C82.2846 101.062 81.8126 100.615 81.8062 100.08C81.8024 99.745 81.9893 99.4573 82.2032 99.2063C82.7129 98.608 83.4964 98.0987 84.1061 97.59C85.2607 96.637 86.392 95.6586 87.499 94.6553C85.5788 91.8057 83.6306 88.9733 81.6549 86.1586C80.4136 84.3712 78.6317 81.3561 77.0295 79.9798C75.9691 79.069 74.4235 78.4697 73.1524 77.8538Z" fill="#778EEE"/>
<path d="M47.8534 140.283C47.6431 140.362 47.5804 140.381 47.4585 140.575C47.0353 141.252 46.7703 142.22 46.4683 142.966C45.7365 144.774 43.6516 149.965 42.3734 151.117C43.1811 152.341 47.7518 154.33 49.2374 154.883C52.621 156.142 56.2371 156.713 59.8148 155.882C60.9353 155.621 61.9985 155.148 63.1187 154.895C64.0108 154.691 65.0601 155.04 65.8753 154.694C65.9689 154.754 66.0601 154.791 66.1668 154.828C67.0285 155.12 70.9063 155.049 71.71 154.675C71.3906 150.598 70.8405 146.833 69.4741 142.951C68.9943 143.312 61.4391 143.933 60.3826 143.911C56.8181 143.832 53.4522 142.696 50.1867 141.419C49.4641 141.137 48.3944 140.822 47.8534 140.283Z" fill="#FFD6B6"/>
<path d="M70.4837 73.5049C69.1705 74.4455 67.6392 75.201 66.1563 75.8615C61.071 78.1269 56.2237 78.7765 50.6813 78.1133C51.9904 79.0404 53.398 80.0145 54.2684 81.3611C54.5748 81.8353 54.7103 82.4379 55.0564 82.8754C55.9624 84.0202 57.1125 84.8684 57.7197 86.231C58.5293 88.0477 57.9688 90.0314 57.2358 91.7791C56.92 92.4237 56.4685 93.0466 55.9616 93.5663C55.6674 93.8679 54.9156 94.2612 54.8058 94.6265L54.9485 94.8348C55.4783 95.1492 56.1963 95.1997 56.8012 95.2985C61.8556 96.1233 67.7 94.3613 71.7998 91.5581C71.7761 87.9002 71.8336 84.1817 71.5116 80.5368C71.3045 78.1938 70.8308 75.835 70.4837 73.5049Z" fill="#FFD6B6"/>
<path d="M31.2951 91.5928C30.5972 92.3812 29.865 94.051 29.3072 95.0195C30.3188 95.9439 34.0469 98.9145 34.5771 99.6974C34.7504 99.9533 34.8352 100.242 34.7435 100.541C34.4247 101.582 30.4551 103.628 29.3435 104.274C30.2898 106.536 31.2658 108.787 32.2714 111.025C32.4055 111.345 32.473 111.698 32.7721 111.897C33.058 111.734 33.3592 111.549 33.6639 111.42C34.097 111.236 34.5542 111.47 34.9622 111.625C36.492 109.188 37.7478 106.603 38.709 103.913C36.4014 99.7157 33.467 95.8402 31.2951 91.5928Z" fill="#778EEE"/>
<path d="M25.9111 46.1494C25.7247 46.1353 25.5374 46.1218 25.3503 46.124C24.8949 46.1295 24.4705 46.4132 24.1679 46.7192C23.2061 47.6909 23.0287 49.5332 23.0774 50.8007C23.1982 53.9421 24.735 56.4849 27.0854 58.5936C27.7337 59.0829 28.4648 59.3818 29.2188 59.685C28.4105 57.1482 27.7256 54.63 27.1786 52.0301C26.7716 50.0963 26.4969 48.0356 25.9111 46.1494Z" fill="#FFD6B6"/>
</svg>
