<svg width="196" height="196" viewBox="0 0 196 196" fill="none" xmlns="http://www.w3.org/2000/svg">
<path d="M140.723 62.9806C145.147 58.0502 147.179 51.2131 146.805 44.6454C146.381 37.2088 142.922 30.5449 137.362 25.6491C130.678 19.7648 120.572 15.7099 111.611 16.3155C107.256 16.6097 101.728 17.5674 98.7323 21.0372C98.3934 21.4296 98.13 21.8514 97.8907 22.3114C95.0415 21.7026 92.2599 22.4975 89.8495 24.0527C85.1517 27.0836 81.8352 32.479 80.6912 37.8926C79.7309 42.4372 80.2729 48.016 82.8352 51.9835C83.158 52.4837 83.5263 52.9494 83.9063 53.4068C83.9036 64.8603 82.9752 77.405 91.7762 86.2297C93.5743 88.0328 95.6089 89.3969 97.846 90.5912C97.8953 91.0862 97.9416 91.5814 98.0085 92.0745C96.7815 92.8121 95.5425 93.5381 94.3667 94.3562C93.3274 95.0794 92.3016 96.0036 91.1706 96.5648C89.8288 97.2306 88.3011 97.6556 86.9033 98.2017C83.2583 99.6255 79.2806 101.142 75.8104 102.943C73.5763 104.102 71.5597 105.537 69.9334 107.473C64.9429 113.413 59.6374 128.843 57.013 136.536C56.2051 135.16 53.2754 129.532 51.7882 129.156C51.1991 129.007 50.5868 129.191 50.0161 129.34C49.0827 127.995 48.3886 126.793 48.1242 125.157C48.6565 123.825 49.1986 122.496 49.5421 121.1C50.6593 116.56 50.0291 111.645 49.3346 107.086C49.0433 105.173 48.6223 103.169 48.6049 101.231C48.5831 98.8008 50.0352 94.9348 49.0754 92.8117C48.7594 92.1124 48.1294 91.6107 47.4139 91.3611C46.271 90.9627 44.9526 91.095 43.8855 91.649C42.0043 92.6258 40.819 94.5257 40.2263 96.5038C39.434 99.1479 39.1949 102.435 39.5404 105.184C36.7637 103.209 29.6243 100.094 26.2005 100.66C25.0757 100.846 24.0893 101.45 23.4361 102.388C22.5218 103.7 22.2762 105.562 22.2349 107.121C21.0578 107.895 20.3082 108.803 19.9978 110.213C19.757 111.308 19.8834 112.329 20.094 113.416C18.8232 114.819 18.2943 116.411 18.3846 118.3C18.4118 118.865 18.4996 119.405 18.6327 119.954C17.8571 121.436 17.6446 122.84 18.1536 124.45C19.4112 128.43 24.1715 132.145 27.7427 133.962C29.2272 134.717 30.748 135.282 32.3444 135.748L32.8805 136.88C31.6485 137.982 29.6476 139.703 29.5313 141.463C29.4334 142.943 37.0598 157.869 38.3237 160.232C39.7216 162.859 41.1963 165.442 42.7476 167.981C44.6112 170.969 46.6451 173.946 49.032 176.545C51.6977 179.448 54.8461 181.607 58.8962 181.78C63.0283 181.957 67.0125 179.851 69.9775 177.115C70.5037 176.629 71.0364 176.108 71.4624 175.531C71.5161 176.652 71.8243 183.365 72.3403 183.814C72.5096 183.961 72.6911 184.025 72.9166 183.991C73.1456 183.956 73.3667 183.804 73.5538 183.677L91.2842 183.67C91.4426 183.781 91.5849 183.885 91.7723 183.945C91.9952 184.016 92.2348 184.014 92.4355 183.881C92.5665 183.793 92.7463 183.553 92.7928 183.403C92.9465 182.907 92.7015 179.27 92.6795 178.532C92.4753 171.672 92.5495 164.844 92.6881 157.985C92.8123 151.842 92.9387 145.722 93.366 139.59C93.8026 133.652 94.4137 127.732 95.1991 121.831C95.9846 115.929 96.9432 110.056 98.0747 104.211C100.812 106.617 104.001 107.604 107.624 107.553C114.466 107.456 120.033 103.938 124.675 99.1925C123.464 103.836 122.494 108.565 121.505 113.261C117.246 133.481 114.888 153.48 116.878 174.17C117.016 175.605 117.637 182.492 118.221 183.59C118.349 183.83 118.53 183.915 118.779 184C119.134 183.985 119.348 183.843 119.647 183.664L142.479 183.669C146.352 183.669 150.305 183.5 154.17 183.703C154.362 183.85 154.52 183.915 154.744 183.996C155.107 183.988 155.349 183.81 155.653 183.627C156.678 183.73 157.74 183.677 158.77 183.676L164.105 183.671C169.017 183.667 173.938 183.742 178.849 183.669C179.103 183.834 179.366 184.027 179.687 183.982C179.917 183.951 180.116 183.821 180.214 183.607C180.574 182.824 180.079 177.126 179.994 175.826C179.655 170.824 179.187 165.835 178.589 160.858C177.992 155.88 177.266 150.922 176.411 145.982C174.716 136.257 172.656 126.259 168.492 117.26C167.135 114.327 165.469 111.497 163.288 109.097C157.575 102.812 147.866 99.09 140.032 96.2207C138.228 95.5605 136.405 94.9625 134.599 94.3107C132.95 91.5841 130.769 89.5324 127.919 88.0877C127.857 85.3032 127.712 82.5284 127.726 79.7414C128.657 78.1527 129.533 76.5789 130.157 74.8377C132.335 75.1591 134.184 74.9062 135.993 73.5736C138.484 71.7384 140.152 68.6364 140.577 65.5995C140.698 64.7317 140.723 63.8559 140.723 62.9806Z" fill="#1E1E1E"/>
<path d="M136.921 109.299C136.348 103.556 134.803 95.2558 130.149 91.4455C129.568 90.9757 128.97 90.5292 128.354 90.106C127.981 92.4028 127.347 94.6954 126.813 96.9615C125.858 100.923 124.942 104.893 124.066 108.873C122.868 114.329 121.682 119.813 120.731 125.318C119.964 129.791 119.339 134.284 118.856 138.796C118.374 143.309 118.034 147.832 117.839 152.366C117.725 155.963 117.719 159.56 117.821 163.158C117.923 166.755 118.134 170.346 118.451 173.931C118.637 175.902 118.868 177.867 119.144 179.828C119.321 181.061 119.67 182.422 119.648 183.664L142.479 183.669C146.353 183.669 150.306 183.5 154.17 183.703C154.362 183.85 154.52 183.915 154.744 183.996C155.108 183.988 155.349 183.81 155.654 183.627C156.678 183.73 157.741 183.677 158.77 183.676L164.106 183.671C169.018 183.667 173.939 183.742 178.85 183.669C178.522 179.392 178.426 175.103 178.061 170.823C176.738 155.319 173.114 128.552 165.698 115.266C165.511 114.927 165.317 114.593 165.116 114.263C164.914 113.933 164.706 113.607 164.49 113.286C164.274 112.965 164.052 112.649 163.822 112.338C163.592 112.027 163.356 111.721 163.113 111.42C162.87 111.119 162.62 110.824 162.363 110.535C162.107 110.245 161.845 109.961 161.576 109.683C161.307 109.405 161.032 109.133 160.751 108.867C160.471 108.602 160.184 108.342 159.892 108.089C153.436 102.596 143.513 99.1091 135.553 96.3026C136.368 98.5646 139.219 108.142 138.299 109.949C137.645 111.232 131.851 113.657 130.313 114.473C132.079 115.831 135.933 118.531 137.22 120.041C137.436 120.295 137.537 120.558 137.641 120.87L137.704 121.056C136.9 123.674 135.679 126.282 134.597 128.801C132.592 133.435 130.563 138.058 128.509 142.67L123.629 153.976L122.22 157.218C122.04 157.639 121.91 158.094 121.697 158.499C121.534 158.81 121.291 159.152 120.966 159.31C120.807 159.388 120.684 159.373 120.516 159.353C120.3 159.206 120.226 159.102 120.161 158.845C120.067 158.475 120.196 158.009 120.325 157.663C120.711 156.631 121.231 155.63 121.669 154.617C122.654 152.283 123.662 149.959 124.692 147.645L130.029 135.325C132.103 130.585 134.222 125.857 136.046 121.014C134.491 119.659 132.889 118.363 131.239 117.125C130.415 116.504 129.47 115.927 128.709 115.235C128.472 115.02 128.197 114.739 128.161 114.404C128.126 114.088 128.325 113.825 128.542 113.622C129.538 112.693 135.218 110.186 136.921 109.299Z" fill="#778EEE"/>
<path d="M155.652 183.627C155.457 182.283 155.122 180.954 154.867 179.619C154.398 177.044 153.903 174.474 153.38 171.91L149.53 153.063L146.624 138.739L145.735 134.316C145.601 133.642 145.515 132.93 145.329 132.27C145.26 132.027 145.187 131.764 144.971 131.609C144.786 131.476 144.524 131.436 144.309 131.51C144.091 131.585 143.894 131.778 143.83 132.001C143.679 132.532 143.993 133.641 144.094 134.194C145.75 143.299 147.779 152.362 149.624 161.432L152.191 174.066C152.831 177.28 153.415 180.513 154.168 183.703C154.36 183.85 154.518 183.915 154.742 183.996C155.106 183.988 155.348 183.81 155.652 183.627Z" fill="#1E1E1E"/>
<path d="M124.157 170.341C124.104 170.339 124.05 170.338 123.997 170.339C123.943 170.34 123.89 170.342 123.836 170.345C123.783 170.349 123.73 170.353 123.677 170.359C123.623 170.365 123.57 170.373 123.518 170.381C123.465 170.39 123.412 170.4 123.36 170.411C123.307 170.422 123.255 170.434 123.204 170.448C123.152 170.461 123.1 170.476 123.049 170.492C122.998 170.509 122.948 170.526 122.897 170.544C122.847 170.563 122.798 170.583 122.748 170.604C122.699 170.625 122.65 170.647 122.602 170.67C122.554 170.694 122.507 170.718 122.46 170.744C122.413 170.77 122.366 170.797 122.321 170.825C122.275 170.852 122.23 170.882 122.186 170.912C122.142 170.942 122.098 170.973 122.056 171.005C122.013 171.038 121.971 171.071 121.93 171.105C121.889 171.139 121.849 171.175 121.809 171.211C121.77 171.247 121.731 171.284 121.694 171.323C121.656 171.361 121.62 171.4 121.584 171.44C121.548 171.48 121.514 171.52 121.48 171.562C121.446 171.604 121.414 171.646 121.382 171.689C121.35 171.732 121.32 171.776 121.29 171.821C121.261 171.866 121.233 171.911 121.205 171.957C121.178 172.003 121.152 172.05 121.127 172.097C121.102 172.144 121.078 172.192 121.056 172.241C121.033 172.289 121.011 172.338 120.991 172.388C120.971 172.437 120.952 172.487 120.934 172.538C120.916 172.588 120.899 172.639 120.884 172.691C120.869 172.742 120.855 172.793 120.842 172.845C120.829 172.897 120.817 172.95 120.807 173.002C120.797 173.055 120.788 173.107 120.78 173.16C120.772 173.213 120.766 173.266 120.761 173.32C120.755 173.373 120.752 173.426 120.749 173.48C120.747 173.533 120.745 173.587 120.745 173.64C120.745 173.694 120.747 173.747 120.75 173.801C120.752 173.854 120.756 173.908 120.761 173.961C120.767 174.014 120.773 174.067 120.781 174.12C120.789 174.173 120.798 174.226 120.808 174.278C120.819 174.331 120.83 174.383 120.843 174.435C120.856 174.487 120.87 174.538 120.886 174.59C120.901 174.641 120.918 174.692 120.936 174.742C120.954 174.793 120.973 174.843 120.993 174.892C121.014 174.942 121.035 174.991 121.058 175.039C121.081 175.087 121.105 175.135 121.13 175.183C121.155 175.23 121.181 175.277 121.209 175.322C121.236 175.369 121.264 175.414 121.294 175.458C121.323 175.503 121.354 175.547 121.386 175.59C121.417 175.633 121.45 175.676 121.484 175.717C121.518 175.759 121.552 175.799 121.588 175.839C121.624 175.879 121.661 175.918 121.698 175.956C121.736 175.994 121.774 176.031 121.814 176.067C121.853 176.104 121.893 176.139 121.935 176.173C121.976 176.207 122.018 176.24 122.06 176.273C122.103 176.305 122.147 176.336 122.191 176.366C122.235 176.396 122.28 176.425 122.326 176.453C122.372 176.481 122.418 176.508 122.465 176.533C122.512 176.559 122.56 176.583 122.608 176.606C122.656 176.63 122.705 176.652 122.754 176.673C122.803 176.694 122.853 176.714 122.903 176.732C122.953 176.751 123.004 176.768 123.055 176.784C123.106 176.8 123.158 176.815 123.209 176.828C123.261 176.842 123.313 176.854 123.366 176.865C123.418 176.876 123.471 176.886 123.524 176.894C123.576 176.903 123.629 176.91 123.683 176.916C123.736 176.921 123.789 176.926 123.843 176.929C123.915 176.934 123.988 176.936 124.06 176.935C124.133 176.935 124.205 176.932 124.278 176.927C124.35 176.922 124.422 176.914 124.494 176.904C124.566 176.895 124.637 176.882 124.709 176.868C124.78 176.853 124.85 176.836 124.92 176.817C124.99 176.798 125.059 176.776 125.128 176.752C125.197 176.728 125.264 176.702 125.331 176.674C125.398 176.646 125.464 176.615 125.529 176.582C125.593 176.55 125.657 176.515 125.719 176.478C125.782 176.441 125.843 176.402 125.903 176.361C125.963 176.32 126.022 176.277 126.079 176.233C126.136 176.188 126.192 176.141 126.246 176.093C126.3 176.044 126.352 175.994 126.403 175.942C126.453 175.89 126.502 175.837 126.55 175.782C126.597 175.726 126.642 175.67 126.686 175.611C126.729 175.553 126.771 175.494 126.81 175.433C126.85 175.372 126.887 175.31 126.923 175.247C126.958 175.183 126.991 175.119 127.022 175.053C127.054 174.988 127.082 174.921 127.109 174.854C127.136 174.786 127.161 174.718 127.183 174.649C127.205 174.58 127.225 174.51 127.243 174.44C127.26 174.369 127.276 174.298 127.289 174.227C127.302 174.155 127.312 174.084 127.321 174.012C127.329 173.939 127.335 173.867 127.338 173.795C127.341 173.722 127.343 173.65 127.341 173.577C127.34 173.504 127.336 173.432 127.33 173.36C127.324 173.287 127.316 173.215 127.305 173.144C127.294 173.072 127.281 173 127.265 172.929C127.249 172.859 127.231 172.788 127.211 172.719C127.191 172.649 127.169 172.58 127.144 172.512C127.119 172.443 127.092 172.376 127.063 172.31C127.034 172.243 127.002 172.178 126.969 172.113C126.935 172.049 126.9 171.986 126.862 171.924C126.824 171.862 126.784 171.801 126.743 171.742C126.701 171.682 126.657 171.624 126.612 171.568C126.566 171.511 126.519 171.456 126.47 171.403C126.421 171.349 126.37 171.298 126.317 171.248C126.264 171.198 126.21 171.149 126.154 171.103C126.099 171.056 126.042 171.012 125.983 170.969C125.924 170.926 125.864 170.886 125.803 170.847C125.741 170.808 125.679 170.772 125.615 170.737C125.551 170.703 125.486 170.67 125.42 170.64C125.354 170.61 125.287 170.582 125.219 170.556C125.152 170.53 125.083 170.506 125.014 170.485C124.944 170.463 124.874 170.444 124.803 170.428C124.733 170.411 124.662 170.397 124.59 170.384C124.519 170.372 124.447 170.363 124.374 170.356C124.302 170.348 124.23 170.343 124.157 170.341Z" fill="#1E1E1E"/>
<path d="M124.112 172.165C123.811 172.21 123.532 172.261 123.263 172.41C122.878 172.624 122.572 172.982 122.475 173.417C122.466 173.46 122.459 173.503 122.454 173.547C122.449 173.591 122.446 173.635 122.445 173.679C122.444 173.723 122.445 173.767 122.449 173.811C122.453 173.855 122.459 173.899 122.466 173.942C122.474 173.986 122.484 174.028 122.496 174.071C122.509 174.113 122.523 174.155 122.539 174.196C122.555 174.237 122.574 174.277 122.594 174.316C122.614 174.355 122.636 174.394 122.66 174.431C122.956 174.893 123.402 175.051 123.909 175.181C124.227 175.138 124.522 175.095 124.805 174.933C125.178 174.72 125.476 174.356 125.577 173.934C125.587 173.889 125.596 173.844 125.602 173.799C125.608 173.754 125.611 173.708 125.613 173.663C125.614 173.617 125.613 173.571 125.61 173.526C125.607 173.48 125.601 173.435 125.593 173.39C125.586 173.345 125.575 173.3 125.563 173.256C125.551 173.212 125.536 173.169 125.519 173.126C125.503 173.084 125.484 173.042 125.463 173.002C125.442 172.961 125.419 172.922 125.394 172.883C125.086 172.406 124.641 172.271 124.112 172.165Z" fill="#778EEE"/>
<path d="M98.0488 94.0477C92.1913 97.5156 87.0567 102.074 84.5367 108.585C85.836 109.394 89.5939 111.927 90.3018 113.001C90.367 113.307 90.3207 113.524 90.1539 113.783C89.3709 115 83.4946 117.743 81.7896 118.947C81.9185 121.238 82.0948 123.526 82.3185 125.81C82.5422 128.094 82.8129 130.372 83.1308 132.645C83.4487 134.918 83.8135 137.183 84.2253 139.441C84.6369 141.699 85.095 143.947 85.5997 146.186C86.1504 148.684 86.7452 151.171 87.3843 153.648C87.6559 154.692 88.0803 155.739 88.2915 156.789C88.3692 157.177 88.4443 157.707 88.1756 158.045C88.0388 158.217 87.8286 158.303 87.6102 158.293C87.3327 158.281 87.1276 158.049 86.9943 157.826C86.4595 156.933 86.3273 155.606 86.0383 154.597C83.6222 146.152 82.0842 137.364 81.0142 128.653C80.6972 126.174 80.47 123.686 80.3327 121.19C80.2767 120.264 80.1759 119.313 80.1891 118.385C81.6347 116.643 86.1114 114.529 88.2221 113.277C87.1483 112.454 83.1643 109.964 82.9571 108.778C82.6521 107.03 86.0293 102.606 87.1464 101.164C87.7271 100.413 88.3273 99.6782 89.0076 99.0156C84.5447 101.084 79.8578 102.522 75.5486 104.955C73.7069 105.995 72.074 107.295 70.7343 108.937C67.0415 113.462 63.1895 124.16 61.0904 129.881C60.0614 132.719 59.0698 135.57 58.1156 138.434C59.6657 141.159 61.1939 143.911 62.8046 146.599C63.8727 148.382 65.1089 150.169 66.0581 152.013C66.2115 152.311 66.4326 152.725 66.3506 153.072C66.2955 153.305 66.0843 153.539 65.8625 153.632C65.6823 153.708 65.462 153.759 65.2795 153.658C64.9687 153.488 64.7581 153.141 64.5723 152.848C63.2658 150.786 62.1122 148.589 60.889 146.474C57.9514 141.331 54.962 136.218 51.9211 131.135C48.518 136.649 40.9262 141.358 34.6585 142.854C33.7327 143.08 32.7948 143.229 31.8447 143.3C36.0787 152.394 46.4905 176.098 55.7612 179.53C58.6835 180.612 61.7163 180.202 64.4903 178.891C67.3035 177.561 69.4591 175.572 71.4059 173.183C70.9786 168.42 70.9258 163.582 70.8206 158.803C70.5944 148.486 70.7064 138.172 71.1567 127.862C71.2005 126.843 71.1942 123.665 71.3768 122.878C71.4118 122.727 71.5017 122.576 71.6048 122.462C71.764 122.286 72.0013 122.168 72.2398 122.16C72.437 122.154 72.6622 122.242 72.7783 122.405C72.921 122.604 72.9332 122.783 72.9384 123.018C72.9709 124.481 72.7842 125.977 72.7136 127.441C72.606 130.183 72.5148 132.927 72.4401 135.67C72.1533 146.481 72.2398 157.289 72.6997 168.093C72.832 171.473 73.0086 174.851 73.2295 178.227C73.3417 179.886 73.7268 182.063 73.5523 183.677L91.2828 183.67C90.7891 175.551 90.918 167.327 91.0762 159.201C91.3153 146.91 91.8513 134.752 93.4956 122.556C94.2919 116.802 95.2051 111.066 96.235 105.349C96.8882 101.621 97.7022 97.8133 98.0488 94.0477Z" fill="#778EEE"/>
<path d="M100.566 31.3989C100.139 31.3608 99.6973 31.3752 99.2675 31.3685C99.1489 31.6498 98.9806 32.1996 98.7102 32.3639C98.1759 32.6884 97.022 32.706 96.3826 32.8382C94.9677 33.1309 93.4818 34.03 92.3667 34.9275C88.1596 38.3137 86.3053 44.0021 85.7674 49.2124C85.4124 52.6524 85.5075 56.1819 85.5534 59.6351C85.6656 68.0637 85.8462 76.5424 91.4713 83.4281C94.51 87.1476 98.7299 89.8005 103.565 90.2561C110.086 90.8707 116.806 87.984 121.752 83.8734C124.045 81.9328 126.029 79.6063 127.415 76.9322C127.724 76.3344 128.827 73.2651 129.173 73.0343C129.68 72.6967 130.596 73.1165 131.145 73.2215C132.364 73.455 133.745 72.9711 134.745 72.2927C136.861 70.8561 138.315 68.4589 138.771 65.962C139.165 63.8056 139.024 61.4149 137.724 59.5777C137.286 58.9576 136.707 58.4814 135.936 58.3706C134.5 58.1644 131.636 60.0395 130.713 61.0469C130.341 61.4532 130.149 62.1106 129.677 62.4072C129.462 62.5426 129.261 62.5851 129.014 62.5281C128.708 62.4575 128.493 62.2676 128.373 61.9778C128.086 61.2804 128.031 59.0081 127.68 57.8643C127.105 55.9943 125.963 54.9144 124.828 53.3857C124.338 52.7266 123.942 52.0206 123.555 51.2978C123.193 51.2617 122.829 51.2255 122.47 51.1647C120.367 50.8087 118.541 49.8658 116.823 48.63C111.299 44.6565 110.287 40.7853 106.558 35.6361C105.064 33.5721 103.159 31.8109 100.566 31.3989Z" fill="#FED5B6"/>
<path d="M111.384 73.0469C111.169 73.0335 110.897 73.0027 110.697 73.0941C110.176 73.3321 109.563 74.1283 109.117 74.5315C107.531 75.9674 104.901 76.6313 102.805 76.7053C101.059 76.7669 98.7527 76.5211 97.2398 75.5722C96.4787 75.0948 95.8685 74.4447 95.2098 73.8439C94.8076 73.4772 94.4803 73.2217 93.9208 73.2433C93.6643 73.386 93.4631 73.5541 93.4113 73.8649C93.348 74.2439 93.6483 74.6054 93.8487 74.894C95.7041 76.9287 98.0081 78.0339 100.756 78.3426C104.246 78.7347 107.786 77.8319 110.534 75.6225C111.049 75.2088 111.755 74.5836 111.799 73.8766C111.822 73.5163 111.607 73.2938 111.384 73.0469Z" fill="#1E1E1E"/>
<path d="M100.835 60.3361C100.617 60.3285 100.419 60.3562 100.204 60.3863C99.6713 60.7082 99.4628 61.5983 99.2371 62.1509C99.0309 62.6557 98.8182 63.1549 98.5001 63.6011C97.8785 64.4735 96.8412 65.2874 96.5461 66.3375C96.522 66.4246 96.5024 66.5127 96.4872 66.6018C96.472 66.6909 96.4614 66.7806 96.4555 66.8707C96.4493 66.961 96.4478 67.0513 96.4509 67.1416C96.4539 67.2319 96.4615 67.3218 96.4736 67.4115C96.4857 67.501 96.5024 67.5897 96.5235 67.6777C96.5447 67.7656 96.5702 67.8521 96.6001 67.9375C96.63 68.0228 96.6641 68.1063 96.7024 68.1882C96.7408 68.2701 96.7832 68.3498 96.8296 68.4273C97.5029 69.5462 98.7559 69.9879 99.9479 70.3065C100.228 70.3467 100.428 70.3509 100.663 70.1814C100.897 70.0124 101.04 69.7821 101.077 69.4971C100.815 68.5434 99.118 68.3741 98.4458 67.6798C98.2695 67.4977 98.0748 67.1865 98.1172 66.9201C98.2086 66.3459 99.0939 65.585 99.459 65.099C100.126 64.2113 101.385 62.2628 101.32 61.1179C101.299 60.7481 101.09 60.5653 100.835 60.3361Z" fill="#1E1E1E"/>
<path d="M112.358 49.1929C111.187 49.058 109.132 49.1462 108.097 49.7196C107.759 49.9071 107.325 50.2531 107.271 50.6681C107.252 50.8177 107.283 50.9753 107.368 51.0981C107.451 51.2169 107.668 51.4248 107.812 51.4638C108.228 51.5759 110.046 50.9862 110.648 50.9329C111.749 50.8351 112.727 50.9617 113.795 51.228C114.999 51.6165 116.406 52.6983 117.231 52.8817C117.417 52.8467 117.548 52.8174 117.704 52.6973C117.903 52.5437 118.005 52.3519 118.023 52.1006C118.043 51.8284 117.935 51.5925 117.767 51.386C116.74 50.1247 113.924 49.3698 112.358 49.1929Z" fill="#1E1E1E"/>
<path d="M93.3464 48.3344C91.8425 48.1973 89.6382 48.5253 88.4198 49.4803C88.0937 49.7359 87.7797 50.1651 87.7994 50.6037C87.8108 50.8585 87.8562 50.9078 88.0264 51.0715C89.0107 51.4034 90.2939 50.3659 91.2956 50.1576L91.4354 50.1295C92.524 50.0105 93.8477 49.9394 94.8789 50.3669C95.3081 50.545 95.7706 50.8441 96.2252 50.9307C96.4339 50.9705 96.7166 50.9116 96.8788 50.7634C97.0567 50.6006 97.1537 50.4327 97.1523 50.1859C97.1506 49.9059 96.9989 49.6257 96.8201 49.4195C96.1535 48.6516 94.3064 48.3993 93.3464 48.3344Z" fill="#1E1E1E"/>
<path d="M93.8343 56.4248C93.6543 56.4449 93.4634 56.4715 93.2909 56.5268C92.7506 56.6997 92.3108 57.2525 92.0993 57.757C91.7462 58.5998 91.7653 59.6481 92.124 60.4851C92.4124 61.1584 92.8053 61.5285 93.473 61.8131C93.7017 61.8026 93.9336 61.7804 94.1465 61.6896C94.6849 61.46 95.0814 60.9438 95.2885 60.4104C95.6177 59.5621 95.5915 58.5112 95.2136 57.6834C94.91 57.0182 94.5099 56.6754 93.8343 56.4248Z" fill="#1E1E1E"/>
<path d="M111.618 57.1916C111.405 57.2106 111.186 57.2333 110.983 57.3098C110.437 57.516 110.024 58.0709 109.825 58.6C109.502 59.4557 109.541 60.5058 109.927 61.3342C110.238 62.0036 110.622 62.3225 111.305 62.5721C111.528 62.5583 111.763 62.4952 111.967 62.4011C112.496 62.1567 112.88 61.6123 113.075 61.0788C113.384 60.2346 113.351 59.1962 112.964 58.3823C112.669 57.7609 112.267 57.4057 111.618 57.1916Z" fill="#1E1E1E"/>
<path d="M135.227 60.8302C133.817 61.0469 132.486 61.523 131.526 62.641C130.654 63.6545 130.186 65.3176 130.33 66.6548C130.374 67.0735 130.575 67.2764 130.88 67.5327C131.145 67.5341 131.428 67.5168 131.652 67.3537C132.126 67.0075 131.961 65.9614 132.062 65.4106C132.53 62.8542 134.133 63.2861 135.548 62.1972C135.695 62.0842 135.794 61.9336 135.795 61.7458C135.796 61.3417 135.506 61.0817 135.227 60.8302Z" fill="#1E1E1E"/>
<path d="M115.23 18.0186C110.578 17.7996 103.6 18.2837 100.228 21.8728C99.7546 22.3768 99.3296 23.8228 98.6975 24.0617C98.2407 24.2343 96.4814 23.8018 95.8494 23.792C94.6096 23.7725 93.2988 24.1184 92.177 24.631C88.1255 26.4827 84.7802 31.1019 83.2668 35.1593C81.2977 40.4391 81.5814 45.5404 83.9132 50.6194C84.4195 45.4233 85.5812 40.285 88.8692 36.0858C91.0202 33.339 93.9675 31.3404 97.4804 30.9215C97.7128 30.6109 97.9703 30.2878 98.2939 30.0678C99.2038 29.4495 100.523 29.5992 101.55 29.8064C106.889 30.8832 109.838 37.8415 112.573 41.9575C114.779 45.0214 117.994 48.1237 121.673 49.2973C122.546 49.5758 123.857 49.4161 124.624 49.8797C125.172 50.2112 125.404 51.2366 125.757 51.7651C126.222 52.4611 126.8 53.1042 127.324 53.7587C128.775 55.5731 129.405 57.2599 129.78 59.5449C130.991 58.5577 132.711 57.3672 134.181 56.8466C135.245 56.47 136.345 56.4782 137.361 56.9979C138.953 57.8125 139.731 59.3911 140.253 61.0119C143.093 57.6392 144.688 52.8393 145.052 48.4699C145.616 41.6996 143.595 35.0472 139.157 29.8771C133.517 23.3081 123.853 18.6842 115.23 18.0186Z" fill="#313030"/>
<path d="M46.8273 92.7855C45.5464 92.7295 44.6524 92.9115 43.6564 93.8023C40.9681 96.207 41.0676 100.89 41.0498 104.2C41.0448 105.139 40.9587 106.118 41.0146 107.053C41.0597 107.811 41.3755 108.518 41.3116 109.291C41.1867 110.805 40.2927 111.946 39.168 112.879C39.5372 114.058 39.6648 115.124 39.2736 116.329C38.8004 117.786 37.8494 118.624 36.5182 119.281C36.7347 120.01 36.824 120.773 36.7144 121.529C36.5128 122.922 35.7093 123.852 34.6295 124.669C34.659 124.743 34.6894 124.816 34.7181 124.889C34.9698 125.534 34.9017 126.171 34.6014 126.795C34.0875 127.862 33.1007 128.894 31.9764 129.283C30.601 129.758 25.2712 128.556 23.9886 127.888C23.7388 127.758 23.527 127.55 23.4804 127.259C23.4364 126.986 23.5159 126.877 23.6552 126.664C24.5869 126.132 26.3638 126.895 27.3352 127.147C28.7032 127.5 30.7031 128.259 31.9904 127.455C32.5258 127.121 33.0497 126.562 33.1679 125.922C33.6518 123.302 23.5504 122.495 22.5131 121.037C22.5075 120.842 22.4978 120.694 22.5829 120.511C22.6919 120.278 22.852 120.189 23.0894 120.115C24.1546 119.78 30.6785 122.001 31.9877 122.535C32.5833 122.779 33.133 123.078 33.6864 123.404C34.3513 122.854 34.9168 122.23 35.1117 121.362C36.1058 116.939 25.2758 116 24.6276 114.521C24.5417 114.325 24.5771 114.124 24.6896 113.947C24.8043 113.766 25.017 113.658 25.2198 113.612C26.5816 113.303 31.8664 115.67 33.2849 116.412C34.0938 116.836 34.8507 117.326 35.6094 117.831C36.1511 117.638 36.6666 117.417 37.0706 116.995C37.6476 116.392 38.0043 115.347 37.954 114.516C37.9108 113.799 37.5506 113.2 37.0258 112.726C35.4989 111.348 31.7811 110.234 29.7726 109.615C28.9677 109.368 27.6617 109.151 27.0623 108.547C26.9563 108.441 26.8458 108.252 26.8655 108.095C26.8947 107.861 27.1103 107.555 27.3119 107.435C27.9404 107.058 29.9972 107.937 30.684 108.16C33.3119 108.997 36.0117 109.968 38.2647 111.582C38.9337 110.949 39.4882 110.315 39.6755 109.377C39.8369 108.569 39.6455 107.771 39.159 107.109C37.583 104.967 30.58 102.674 27.8475 102.242C26.9439 102.098 25.9925 102.196 25.2466 102.775C23.7741 103.917 23.9537 106.467 23.7036 108.12C23.0169 108.587 22.3373 108.982 21.8959 109.713C21.1157 111.005 21.5426 112.632 21.8739 113.992C21.3058 114.558 20.7828 115.059 20.4202 115.786C19.7368 117.156 19.9328 118.664 20.4016 120.057C19.6918 121.265 19.2404 122.182 19.596 123.627C20.7291 128.233 28.1149 132.95 32.467 134.119C33.0818 134.288 33.7025 134.432 34.3293 134.551C35.0607 134.682 36.8077 134.639 37.3531 135.039C37.5145 135.157 37.5939 135.43 37.5835 135.62C37.5713 135.849 37.4585 136.113 37.2752 136.258C36.6859 136.722 35.0328 136.326 34.322 136.23C34.9846 137.719 35.624 139.225 36.3782 140.671C36.8655 140.494 37.3485 140.307 37.8272 140.109C38.306 139.91 38.7799 139.701 39.2489 139.481C39.7181 139.26 40.1818 139.029 40.6402 138.788C41.0987 138.546 41.5513 138.294 41.9981 138.031C42.4449 137.769 42.8854 137.496 43.3196 137.213C43.7538 136.93 44.1812 136.637 44.6019 136.335C45.0225 136.032 45.436 135.72 45.8423 135.398C46.2486 135.076 46.6473 134.745 47.0383 134.405C47.9466 133.628 48.938 132.76 49.6172 131.77C48.4214 129.957 46.9105 127.959 46.663 125.738C46.479 124.086 47.627 122.187 48.0296 120.582C48.3686 119.23 48.4787 117.902 48.5201 116.516C48.6187 113.22 48.1331 109.969 47.6517 106.719C47.3648 104.783 47.014 102.809 47.0241 100.846C47.0341 98.9104 48.209 95.1525 47.6983 93.5705C47.552 93.117 47.2273 92.9672 46.8273 92.7855Z" fill="#FED5B6"/>
<path d="M126.102 82.0026C125.261 82.7613 124.522 83.6517 123.696 84.4351C122.054 85.9921 120.152 87.3117 118.18 88.4149C112.448 91.622 106.015 93.0114 99.5903 91.1893C99.6362 94.9086 99.2808 98.4704 98.5037 102.111C98.9556 102.771 99.5195 103.253 100.142 103.744C102.19 105.16 104.635 105.84 107.113 105.871C112.676 105.941 118.314 103.196 122.221 99.3335C123.304 98.2622 124.655 96.8902 125.315 95.5214C125.648 94.8309 125.784 94.0094 125.924 93.2631C126.146 92.0814 126.368 90.8615 126.399 89.6582C126.427 88.5825 126.275 87.4798 126.208 86.4054C126.118 84.9392 126.083 83.4715 126.102 82.0026Z" fill="#FED5B6"/>
<path d="M33.5301 138.456C32.4806 139.394 31.7893 140.393 31.2075 141.668L32.2943 141.61C33.0909 141.53 33.8704 141.408 34.6582 141.266C34.3568 140.331 33.9658 139.337 33.5301 138.456Z" fill="#778EEE"/>
<path d="M42.9138 26.7214C41.0278 26.4061 38.3234 26.7185 36.4691 27.1804C36.3187 27.218 36.1688 27.2576 36.0194 27.299C35.8699 27.3403 35.7211 27.3835 35.5728 27.4287C35.4245 27.4737 35.2767 27.5206 35.1296 27.5693C34.9823 27.6181 34.8357 27.6687 34.6899 27.7211C34.544 27.7735 34.3987 27.8277 34.2541 27.8837C34.1095 27.9397 33.9657 27.9975 33.8226 28.057C33.6796 28.1167 33.5372 28.1781 33.3955 28.2412C33.254 28.3043 33.1132 28.3692 32.9732 28.4357C32.8332 28.5024 32.6941 28.5708 32.5558 28.641C32.4175 28.711 32.2801 28.7828 32.1437 28.8563C32.0071 28.9298 31.8715 29.005 31.737 29.0818C31.6024 29.1587 31.4687 29.2373 31.3359 29.3175C31.2033 29.3977 31.0716 29.4796 30.9409 29.5631C30.8104 29.6466 30.6808 29.7317 30.5523 29.8182C30.4237 29.9049 30.2964 29.9932 30.1701 30.0831C30.0438 30.173 29.9185 30.2645 29.7945 30.3574C29.6704 30.4505 29.5475 30.5451 29.4259 30.6411C29.3042 30.7371 29.1837 30.8347 29.0644 30.9337C28.9452 31.0327 28.8271 31.1332 28.7103 31.2352C28.5935 31.3372 28.4781 31.4406 28.3639 31.5454C28.2497 31.6502 28.1368 31.7565 28.0252 31.8643C27.9136 31.9719 27.8035 32.0809 27.6947 32.1913C27.5858 32.3018 27.4784 32.4135 27.3724 32.5264C27.2663 32.6396 27.1616 32.7539 27.0583 32.8696C26.9552 32.9854 26.8534 33.1024 26.7531 33.2206C26.6527 33.3388 26.5539 33.4582 26.4566 33.5788C26.3593 33.6994 26.2635 33.8213 26.1691 33.9443C26.0749 34.0674 25.9821 34.1916 25.8908 34.3169C25.7996 34.4423 25.71 34.5688 25.6219 34.6964C25.5339 34.8239 25.4474 34.9526 25.3625 35.0824C25.2776 35.2121 25.1943 35.3429 25.1127 35.4747C25.0311 35.6066 24.9512 35.7394 24.8729 35.8731C24.6628 36.2307 24.4649 36.5947 24.279 36.9653C24.093 37.336 23.9196 37.7124 23.7587 38.0945C23.5978 38.4766 23.4497 38.8636 23.3144 39.2556C23.179 39.6475 23.0567 40.0435 22.9477 40.4435C22.8387 40.8436 22.743 41.2468 22.6606 41.6531C22.5782 42.0595 22.5094 42.4682 22.454 42.879C22.3987 43.29 22.3571 43.7023 22.3291 44.116C22.3011 44.5296 22.2868 44.9438 22.2863 45.3585C22.205 57.9619 31.5065 59.2231 33.954 68.6823C33.5304 69.4013 33.4564 69.9818 33.4432 70.8027C33.4181 72.3625 33.2343 75.7564 33.5617 77.1514C33.6367 77.4708 33.7582 77.6904 33.9967 77.9195C34.6011 78.4998 35.4146 78.4285 36.1894 78.4302C36.2541 78.6219 36.3292 78.8091 36.4069 78.9958C36.9976 80.4177 38.084 81.2932 39.4651 81.8651C40.7813 82.2709 42.1223 82.2742 43.3977 81.7155C44.9231 81.0474 45.7438 79.9305 46.3366 78.4329C47.0001 78.4319 47.6963 78.4736 48.2579 78.0549C48.7085 77.7187 48.8443 77.299 48.9313 76.7631C49.123 75.581 49.1314 70.6457 48.8508 69.4906C48.7724 69.1681 48.5872 68.9173 48.3931 68.6543C48.9893 66.3905 49.9294 64.3922 51.3247 62.505C52.4022 61.0479 53.6949 59.7966 54.8963 58.447C57.6485 55.3551 59.4295 51.7437 59.8369 47.5971C59.8538 47.4399 59.8689 47.2824 59.882 47.1247C59.8951 46.967 59.9062 46.8093 59.9153 46.6514C59.9245 46.4935 59.9317 46.3354 59.9369 46.1773C59.9421 46.0193 59.9454 45.8612 59.9466 45.7029C59.9479 45.5448 59.9472 45.3866 59.9445 45.2284C59.9419 45.0703 59.9372 44.9122 59.9306 44.7542C59.924 44.5961 59.9154 44.4382 59.905 44.2804C59.8944 44.1226 59.8818 43.9648 59.8673 43.8072C59.8529 43.6498 59.8365 43.4925 59.8181 43.3354C59.7996 43.1783 59.7792 43.0214 59.7569 42.8648C59.7346 42.7083 59.7104 42.5519 59.6842 42.3959C59.658 42.2399 59.6298 42.0843 59.5997 41.929C59.5697 41.7736 59.5377 41.6188 59.5037 41.4644C59.4697 41.3098 59.4339 41.1558 59.3962 41.0022C59.3584 40.8486 59.3187 40.6954 59.277 40.5428C59.2354 40.3902 59.192 40.2381 59.1466 40.0866C59.1012 39.9351 59.0539 39.7842 59.0048 39.6337C58.9556 39.4834 58.9046 39.3337 58.8518 39.1846C58.7989 39.0355 58.7441 38.8872 58.6875 38.7395C58.6309 38.5917 58.5725 38.4447 58.5123 38.2984C58.4521 38.1522 58.3901 38.0067 58.3262 37.862C58.2623 37.7174 58.1967 37.5735 58.1292 37.4303C58.0617 37.2872 57.9925 37.145 57.9215 37.0037C57.8505 36.8623 57.7777 36.7219 57.7032 36.5824C57.6286 36.4429 57.5524 36.3042 57.4745 36.1665C57.3966 36.0289 57.3169 35.8923 57.2356 35.7566C57.1542 35.621 57.0711 35.4864 56.9863 35.3529C56.9017 35.2192 56.8153 35.0867 56.7274 34.9554C56.6393 34.8239 56.5496 34.6936 56.4584 34.5644C56.3671 34.4351 56.2742 34.3071 56.1798 34.1802C56.0853 34.0533 55.9893 33.9276 55.8917 33.8032C55.7942 33.6787 55.695 33.5555 55.5943 33.4335C55.4971 33.3146 55.3985 33.197 55.2986 33.0806C55.1985 32.9641 55.097 32.849 54.9941 32.7351C54.8912 32.6211 54.7869 32.5085 54.6811 32.3973C54.5754 32.286 54.4683 32.176 54.3598 32.0674C54.2514 31.9588 54.1416 31.8515 54.0304 31.7457C53.9193 31.6398 53.8068 31.5354 53.693 31.4324C53.5793 31.3292 53.4643 31.2275 53.348 31.1273C53.2317 31.0272 53.1142 30.9285 52.9955 30.8312C52.8768 30.7339 52.7568 30.6381 52.6357 30.5437C52.5146 30.4495 52.3923 30.3568 52.2688 30.2656C52.1454 30.1743 52.0208 30.0846 51.8951 29.9965C51.7695 29.9084 51.6427 29.8219 51.5148 29.7369C51.3871 29.6519 51.2582 29.5685 51.1283 29.4868C50.9984 29.405 50.8674 29.3249 50.7354 29.2465C50.6036 29.168 50.4707 29.0912 50.3368 29.016C50.203 28.9408 50.0683 28.8673 49.9326 28.7955C49.797 28.7237 49.6604 28.6536 49.5229 28.5851C49.3855 28.5168 49.2473 28.4501 49.1083 28.385C48.9691 28.3201 48.8293 28.257 48.6886 28.1955C48.548 28.134 48.4066 28.0743 48.2644 28.0163C48.1223 27.9584 47.9795 27.9022 47.8359 27.8478C47.6924 27.7934 47.5481 27.7409 47.4033 27.6902C47.2584 27.6393 47.1129 27.5903 46.9668 27.5433C46.8208 27.4961 46.6742 27.4507 46.5269 27.4073C46.3797 27.3637 46.232 27.322 46.0837 27.2822C45.9355 27.2424 45.7868 27.2045 45.6376 27.1684C45.4885 27.1323 45.3388 27.098 45.1887 27.0657C45.0387 27.0333 44.8882 27.0027 44.7375 26.974C44.5867 26.9455 44.4355 26.9188 44.284 26.8939C44.1325 26.869 43.9808 26.8461 43.8288 26.825C43.6767 26.804 43.5244 26.7848 43.3719 26.7675C43.2193 26.7502 43.0666 26.7349 42.9138 26.7214Z" fill="#1E1E1E"/>
<path d="M42.3018 28.3472C40.3967 28.162 38.3905 28.3766 36.5528 28.8906C36.4163 28.9287 36.2803 28.9685 36.1448 29.0099C36.0092 29.0514 35.8743 29.0945 35.7399 29.1392C35.6055 29.184 35.4716 29.2304 35.3382 29.2785C35.2049 29.3264 35.0723 29.3761 34.9402 29.4275C34.808 29.4787 34.6766 29.5316 34.5459 29.5862C34.4151 29.6408 34.285 29.697 34.1556 29.7547C34.0263 29.8125 33.8976 29.8718 33.7696 29.9328C33.6417 29.9938 33.5145 30.0563 33.3882 30.1204C33.2618 30.1845 33.1362 30.2501 33.0114 30.3173C32.8867 30.3845 32.7627 30.4531 32.6395 30.5233C32.5165 30.5935 32.3943 30.6652 32.2731 30.7384C32.1517 30.8116 32.0312 30.8864 31.9118 30.9626C31.7924 31.0387 31.6739 31.1164 31.5564 31.1956C31.4388 31.2746 31.3222 31.3552 31.2065 31.4371C31.091 31.5191 30.9765 31.6025 30.863 31.6873C30.7494 31.7721 30.6369 31.8583 30.5254 31.9459C30.4141 32.0335 30.3038 32.1225 30.1945 32.2128C30.0854 32.303 29.9773 32.3947 29.8703 32.4876C29.7635 32.5806 29.6577 32.6748 29.553 32.7703C29.4483 32.8659 29.3449 32.9628 29.2428 33.0609C29.1405 33.1589 29.0394 33.2582 28.9396 33.3589C28.8397 33.4595 28.7412 33.5613 28.6439 33.6643C28.5466 33.7673 28.4506 33.8716 28.356 33.977C28.2613 34.0824 28.1678 34.1889 28.0756 34.2967C27.9836 34.4043 27.8928 34.513 27.8034 34.623C27.714 34.7329 27.626 34.8439 27.5393 34.956C27.4526 35.0681 27.3673 35.1812 27.2834 35.2955C27.1995 35.4097 27.117 35.5249 27.0359 35.6411C26.9549 35.7573 26.8753 35.8744 26.7972 35.9927C26.719 36.1109 26.6422 36.23 26.5669 36.3501C26.4916 36.4703 26.4179 36.5912 26.3458 36.713C26.2735 36.8349 26.2027 36.9577 26.1335 37.0814C24.7508 39.5507 24.0559 42.2574 23.9593 45.0803C23.7998 49.7338 25.5684 53.8247 28.5823 57.2974C30.2542 59.2237 32.055 61.032 33.4285 63.197C34.5069 64.897 35.1639 66.6328 35.7039 68.5579L38.1912 68.5421C38.0342 66.8564 38.0516 65.1193 38.0022 63.4257C37.8811 59.757 37.8262 56.0874 37.8377 52.4167C36.5258 52.4102 35.0806 52.3379 33.9955 51.5178C33.1632 50.8887 32.6684 49.9696 32.5491 48.9377C32.4221 47.8415 32.6459 46.7306 33.3631 45.8703C33.9168 45.2062 34.703 44.7575 35.5692 44.6794C36.486 44.5968 37.5233 44.9082 38.2101 45.5289C39.5926 46.7781 39.4773 48.9063 39.5536 50.5989L39.669 50.7364C40.6469 50.7215 41.6278 50.7462 42.6059 50.7548C42.592 49.0997 42.5158 47.1107 43.6466 45.7603C44.2338 45.0595 45.1357 44.6559 46.0438 44.6157C46.9204 44.5769 47.7653 44.9122 48.4102 45.5004C48.4601 45.5463 48.5087 45.5935 48.5562 45.6421C48.6035 45.6906 48.6496 45.7402 48.6945 45.7909C48.7394 45.8418 48.7829 45.8937 48.8251 45.9468C48.8673 46 48.9081 46.0541 48.9473 46.1092C48.9867 46.1644 49.0247 46.2206 49.0613 46.2777C49.0978 46.3348 49.1328 46.3929 49.1663 46.4519C49.1997 46.5109 49.2317 46.5706 49.2622 46.6312C49.2926 46.6917 49.3215 46.7531 49.3486 46.8152C49.3759 46.8773 49.4016 46.94 49.4257 47.0034C49.4497 47.0668 49.472 47.1307 49.4928 47.1952C49.5136 47.2597 49.5327 47.3248 49.55 47.3903C49.5675 47.4559 49.5832 47.5218 49.5973 47.5881C49.6113 47.6545 49.6235 47.7212 49.634 47.7882C49.6446 47.8551 49.6534 47.9223 49.6606 47.9898C49.6677 48.0571 49.6731 48.1246 49.6766 48.1923C49.6803 48.26 49.6823 48.3278 49.6824 48.3956C49.6904 49.4205 49.3306 50.4048 48.5985 51.1314C47.4346 52.2865 45.8683 52.4051 44.3276 52.416L44.1939 68.5424L46.72 68.5507C48.4101 59.2493 57.2887 57.6264 58.2024 47.1371C58.2151 46.9946 58.2262 46.852 58.2355 46.7092C58.2446 46.5664 58.2521 46.4235 58.2578 46.2806C58.2634 46.1376 58.2673 45.9947 58.2695 45.8517C58.2717 45.7087 58.2721 45.5656 58.2707 45.4225C58.2694 45.2794 58.2663 45.1364 58.2613 44.9935C58.2564 44.8506 58.2497 44.7077 58.2412 44.5649C58.2328 44.422 58.2226 44.2794 58.2106 44.1368C58.1986 43.9942 58.1849 43.8519 58.1695 43.7097C58.1539 43.5675 58.1366 43.4255 58.1176 43.2837C58.0986 43.1419 58.0779 43.0004 58.0553 42.8591C58.0328 42.7178 58.0086 42.5768 57.9826 42.4362C57.9566 42.2954 57.9289 42.1551 57.8994 42.0152C57.8699 41.8752 57.8388 41.7356 57.8059 41.5963C57.7728 41.4571 57.7382 41.3183 57.7018 41.1799C57.6655 41.0416 57.6274 40.9037 57.5876 40.7664C57.5478 40.6289 57.5064 40.492 57.4633 40.3556C57.4201 40.2192 57.3752 40.0834 57.3288 39.9481C57.2823 39.8129 57.2341 39.6781 57.1842 39.544C57.1344 39.41 57.0829 39.2765 57.0297 39.1437C56.9765 39.0109 56.9218 38.8788 56.8654 38.7473C56.8089 38.6159 56.7509 38.4851 56.6913 38.355C56.6316 38.225 56.5704 38.0957 56.5075 37.9671C56.4447 37.8387 56.3802 37.711 56.3141 37.584C56.2482 37.4572 56.1807 37.3311 56.1116 37.2059C56.0423 37.0807 55.9716 36.9563 55.8995 36.8327C55.8273 36.7093 55.7536 36.5867 55.6784 36.4649C55.6031 36.3433 55.5264 36.2226 55.4483 36.1028C55.37 35.9831 55.2903 35.8643 55.2092 35.7465C55.1279 35.6287 55.0453 35.5119 54.9613 35.3961C54.8772 35.2803 54.7918 35.1656 54.7048 35.052C54.6179 34.9384 54.5297 34.8258 54.4401 34.7144C54.3504 34.6028 54.2594 34.4925 54.1669 34.3833C51.1345 30.7918 46.9537 28.7506 42.3018 28.3472Z" fill="#FED033"/>
<path d="M42.625 52.4139L39.5423 52.4137C39.5507 57.7836 39.6327 63.1523 39.7883 68.5201C40.71 68.5985 41.6587 68.5465 42.5841 68.538C42.415 63.1821 42.6072 57.7754 42.625 52.4139Z" fill="#FED033"/>
<path d="M47.2829 70.1975L35.1743 70.1979L35.1597 72.5987L47.2871 72.598L47.2829 70.1975Z" fill="#A3A2A2"/>
<path d="M47.2871 74.2976L35.1687 74.3032C35.1765 75.0824 35.18 75.8616 35.1791 76.6407C39.2 76.7772 43.2591 76.6659 47.2841 76.6598L47.2871 74.2976Z" fill="#A3A2A2"/>
<path d="M46.4083 46.2949C45.8747 46.2834 45.4451 46.3774 45.0564 46.7702C44.1379 47.6981 44.316 49.5217 44.3208 50.7395L45.8487 50.6792C46.0885 50.6155 46.3337 50.5599 46.5663 50.4725C47.1147 50.2667 47.5783 49.8063 47.8113 49.2713C48.0446 48.7357 48.0655 48.1087 47.8388 47.5671C47.56 46.9005 47.0529 46.5625 46.4083 46.2949Z" fill="#FED033"/>
<path d="M36.3635 46.3892C36.1212 46.3615 35.8649 46.3414 35.6242 46.3969C35.1365 46.5093 34.6809 46.8463 34.4426 47.2868C34.1367 47.8519 34.1078 48.5515 34.3179 49.1531C34.5776 49.8975 35.0145 50.2062 35.6988 50.5455L35.8721 50.5761C36.5316 50.6972 37.1753 50.7066 37.8441 50.7192C37.846 49.8101 37.9271 48.7889 37.6645 47.9131C37.4361 47.1507 37.0423 46.7685 36.3635 46.3892Z" fill="#FED033"/>
<path d="M44.5 78.4576C42.3411 78.3476 40.1375 78.426 37.9746 78.4438C38.254 78.8267 38.5478 79.1672 38.8716 79.5117C39.1268 79.7178 39.4172 79.9101 39.7196 80.039C40.7094 80.4607 41.8788 80.424 42.8629 80.0092C43.5283 79.7287 44.2139 79.1282 44.5 78.4576Z" fill="#A3A2A2"/>
<path d="M41.3395 12.2295C40.9637 12.2781 40.5297 12.3778 40.3099 12.7224C40.0178 13.1804 40.009 20.93 40.2011 21.7835C40.2837 22.1507 40.5821 22.3083 40.8732 22.5011C40.9061 22.5019 40.9388 22.504 40.9715 22.5031C41.3028 22.4939 41.7821 22.4168 41.9753 22.1077C42.2148 21.7246 42.259 13.6156 42.0891 12.959C41.9933 12.5884 41.6408 12.4114 41.3395 12.2295Z" fill="#1E1E1E"/>
<path d="M59.0649 17.2063C58.6862 17.1992 58.3722 17.1732 58.0749 17.4532C57.625 17.8768 53.7057 23.9123 53.3893 24.6202C53.3157 24.7849 53.2906 24.9435 53.3163 25.1229C53.3716 25.5104 53.7116 25.7105 54.0008 25.9236C54.2971 25.9412 54.6517 25.948 54.8832 25.7285C55.5105 25.133 59.1845 19.3982 59.6085 18.499C59.6759 18.3561 59.7057 18.2142 59.6887 18.0552C59.6458 17.6539 59.352 17.4427 59.0649 17.2063Z" fill="#1E1E1E"/>
<path d="M24.2715 17.7761C23.8557 17.764 23.4328 17.7603 23.1101 18.0704C22.9187 18.2544 22.8492 18.4232 22.858 18.6895C22.8758 19.2266 27.0717 25.4569 27.6557 25.9729C27.7666 25.993 27.8546 26.0131 27.9705 26.0138C28.2938 26.016 28.6612 25.8608 28.8582 25.5978C29.007 25.3993 29.0338 25.1491 29.0099 24.9096C28.9582 24.3898 24.8889 18.3421 24.2715 17.7761Z" fill="#1E1E1E"/>
</svg>
